<?xml version="1.0" standalone="no"?>
<!DOCTYPE svg PUBLIC "-//W3C//DTD SVG 20010904//EN"
 "http://www.w3.org/TR/2001/REC-SVG-20010904/DTD/svg10.dtd">
<svg version="1.0" xmlns="http://www.w3.org/2000/svg"
 width="500.000000pt" height="500.000000pt" viewBox="0 0 500.000000 500.000000"
 preserveAspectRatio="xMidYMid meet">

<g transform="translate(0.000000,500.000000) scale(0.100000,-0.100000)"
fill="#000000" stroke="none">
<path d="M2120 4185 c-83 -19 -211 -82 -272 -135 -60 -52 -151 -187 -180 -265
-30 -82 -37 -255 -14 -346 57 -220 236 -402 446 -452 37 -9 50 -16 50 -30 0
-10 -8 -20 -17 -23 -159 -47 -242 -197 -298 -537 -14 -83 -25 -180 -25 -215 0
-86 35 -151 81 -152 12 0 22 -22 38 -86 12 -48 21 -87 19 -89 -2 -1 -104 -36
-228 -78 -124 -42 -254 -87 -290 -100 -36 -14 -126 -45 -200 -71 -74 -25 -155
-53 -180 -62 -25 -8 -52 -18 -61 -20 -13 -5 -20 16 -39 116 -23 117 -25 121
-52 127 -33 7 -37 23 -5 23 12 0 45 8 72 19 28 10 70 22 94 26 41 7 43 8 37
36 -7 37 9 38 28 2 l15 -28 1 30 c0 22 3 26 9 15 6 -8 7 -18 4 -24 -4 -6 1 -6
13 -1 26 12 277 97 399 135 55 17 124 33 154 35 29 2 58 8 64 14 7 7 -1 7 -27
0 -20 -6 -43 -8 -49 -6 -7 2 7 10 31 16 23 6 42 16 42 22 0 6 -9 8 -22 3 -13
-3 -99 -31 -193 -61 -236 -76 -236 -75 -240 -71 -3 2 -6 15 -7 29 -2 19 2 25
22 27 61 8 437 128 445 143 4 5 -4 9 -17 9 -26 0 -287 -76 -498 -144 -270 -88
-382 -119 -390 -106 -4 6 -13 37 -20 68 -7 31 -21 88 -31 127 -24 88 -24 85
10 85 16 0 42 5 58 11 71 27 627 181 699 194 144 25 224 49 210 62 -10 10
-370 -82 -796 -203 -165 -47 -259 -59 -281 -37 -8 8 15 17 87 33 55 12 117 28
139 36 66 22 325 93 400 108 140 30 401 97 433 111 33 15 45 41 15 31 -10 -3
-65 -16 -123 -30 -58 -13 -173 -42 -256 -65 -84 -22 -158 -41 -166 -41 -8 0
-22 18 -31 39 -18 40 -53 61 -104 61 -37 0 -166 -38 -175 -52 -4 -7 -5 -40 -2
-73 l6 -61 -104 -27 c-115 -29 -173 -51 -183 -67 -4 -6 9 -75 28 -153 20 -78
40 -160 44 -182 9 -39 10 -40 49 -39 21 0 83 13 137 29 54 15 100 26 101 24 2
-2 6 -13 8 -23 3 -16 -15 -25 -127 -59 -71 -21 -132 -41 -134 -43 -2 -2 12
-64 32 -136 20 -73 38 -142 39 -153 6 -39 74 -29 213 29 38 16 64 21 70 15 6
-6 6 -12 0 -18 -13 -11 -125 -41 -154 -41 -55 0 -93 -89 -55 -132 15 -16 16
-29 5 -120 -22 -208 -25 -292 -9 -306 13 -10 16 7 21 131 10 218 27 239 22 27
l-4 -175 10 140 c14 206 31 218 23 16 -4 -116 -3 -161 5 -157 6 4 11 38 11 79
0 40 3 110 7 157 9 119 21 59 16 -90 -1 -63 0 -128 4 -145 l6 -30 8 25 c4 14
8 75 8 135 1 61 4 120 7 133 6 21 8 22 24 7 10 -9 24 -15 31 -13 11 2 15 -21
17 -112 1 -63 5 -122 9 -130 11 -26 22 59 22 178 1 70 5 112 11 112 6 0 27 -8
48 -19 20 -10 83 -37 140 -60 56 -22 139 -59 183 -81 l80 -41 -2 -195 c-2
-180 1 -217 17 -201 3 3 9 75 12 158 4 112 8 147 15 129 5 -14 7 -86 4 -165
-7 -174 10 -161 22 17 l8 123 2 -90 c5 -180 18 -190 21 -15 3 200 18 152 19
-62 1 -77 5 -139 11 -143 19 -12 23 51 16 243 -7 202 -4 222 34 222 10 0 24 7
31 16 12 14 14 14 20 -3 4 -10 8 -114 8 -230 1 -117 5 -213 10 -213 4 0 18 26
29 58 43 118 69 119 32 1 -10 -35 -18 -65 -16 -66 2 -2 22 25 44 59 23 35 50
69 62 76 11 7 20 17 20 23 0 6 -16 -1 -35 -15 l-35 -27 0 40 c0 23 -4 41 -9
41 -11 0 -47 -48 -60 -81 -7 -16 -10 40 -10 176 l-1 200 33 11 c122 43 510
213 530 233 5 5 8 14 6 20 -2 6 -74 -21 -164 -60 -88 -39 -223 -97 -300 -128
-77 -32 -177 -74 -223 -95 -46 -21 -85 -36 -88 -33 -2 2 -5 21 -7 42 -2 38 -2
39 58 63 33 14 105 44 160 68 55 23 132 55 170 70 39 15 108 44 155 64 204 89
282 122 285 118 8 -8 -27 -185 -44 -223 -13 -30 -16 -47 -9 -59 7 -12 5 -27
-5 -49 -8 -18 -22 -67 -32 -110 l-17 -79 23 -24 c33 -35 168 -120 231 -145 77
-31 188 -31 250 -1 39 20 48 29 54 57 10 54 -15 115 -61 150 -22 16 -91 48
-152 69 -96 34 -114 43 -123 67 -13 30 -7 49 16 49 10 0 14 13 14 48 0 26 9
83 19 127 25 102 41 220 41 294 0 86 -27 109 -230 195 -90 39 -158 72 -152 74
17 5 193 -45 287 -83 44 -17 94 -34 110 -38 17 -3 56 -15 88 -27 l58 -22 -3
-50 -3 -50 -55 -19 c-30 -10 -61 -26 -69 -34 -13 -13 -10 -13 25 -4 21 6 52
18 68 26 l29 15 -7 -108 c-5 -71 -13 -118 -24 -136 -15 -25 -15 -29 0 -45 11
-12 14 -23 8 -33 -11 -21 -33 -179 -26 -196 6 -17 163 -96 244 -123 89 -30
200 -29 270 4 52 24 52 24 52 70 0 101 -56 144 -226 175 -60 11 -113 20 -117
20 -4 0 -15 17 -23 37 -14 33 -14 38 0 48 10 8 15 26 14 56 -1 24 6 124 16
221 16 165 16 179 1 212 -9 19 -22 39 -28 45 -19 15 -207 96 -281 121 -38 12
-70 29 -73 39 -3 9 -13 24 -20 33 -16 18 -10 38 12 38 7 0 70 19 140 41 92 31
129 39 137 31 13 -13 -29 -33 -160 -78 -42 -15 -81 -31 -87 -36 -20 -18 37 -7
109 21 42 16 115 41 163 56 49 14 142 44 209 65 l120 40 70 -19 c38 -11 86
-22 107 -26 20 -3 37 -9 37 -14 0 -4 -17 -15 -37 -25 -38 -18 -393 -149 -490
-180 -29 -10 -55 -22 -58 -27 -10 -15 11 -10 90 21 42 16 82 30 90 30 22 0
342 117 385 141 32 18 49 21 96 16 75 -8 89 -22 34 -37 -23 -6 -88 -31 -144
-55 -55 -23 -136 -55 -179 -70 -43 -15 -76 -29 -74 -31 5 -6 156 48 311 110
77 31 152 56 167 56 16 0 52 -8 81 -19 29 -10 69 -23 88 -28 l35 -9 -60 -31
c-33 -16 -73 -35 -90 -41 -180 -66 -654 -267 -670 -283 -13 -15 18 -6 115 33
41 17 111 43 155 58 44 16 131 51 192 79 62 28 155 67 207 85 51 19 108 42
126 51 17 9 33 15 35 13 2 -2 5 -18 7 -36 3 -38 35 -21 -272 -147 -278 -113
-544 -227 -557 -237 -22 -18 -14 -29 15 -22 15 3 68 26 117 49 121 58 331 145
350 145 13 0 15 -20 15 -124 0 -102 3 -126 16 -137 15 -12 16 -10 11 16 -4 17
-3 57 1 90 l8 60 7 -79 c6 -68 14 -108 33 -175 3 -8 7 -12 9 -9 5 4 -1 44 -21
136 -2 12 0 22 5 22 11 0 28 -42 39 -95 l8 -40 19 55 c19 60 47 106 78 131 19
15 20 27 18 132 l-2 115 68 34 c60 29 68 36 71 64 2 18 -1 47 -6 65 -7 30 -16
37 -78 61 -38 15 -127 41 -199 58 -71 17 -178 44 -236 60 -118 33 -162 36
-199 15 -31 -18 -60 -19 -60 -2 0 6 28 26 63 42 60 29 62 31 60 65 -5 70 -26
161 -40 176 -16 16 -93 20 -93 4 0 -5 -7 -6 -17 -3 -12 5 -14 3 -8 -7 6 -10 4
-12 -8 -7 -10 3 -17 3 -17 -2 0 -4 -11 -13 -24 -19 -23 -10 -25 -9 -31 19 -4
17 -5 31 -3 33 1 1 39 12 83 25 112 31 111 30 96 148 -7 54 -17 105 -22 115
-15 29 -93 52 -152 44 -28 -3 -62 -9 -73 -12 -18 -5 -24 0 -34 30 -6 20 -15
36 -20 36 -5 0 -16 3 -26 7 -12 4 -15 3 -10 -5 4 -7 4 -12 -1 -12 -4 0 -39 -7
-78 -15 -38 -8 -71 -12 -73 -10 -9 9 62 36 99 38 52 2 50 17 -2 17 -58 0 -118
-20 -130 -42 -6 -11 -9 -38 -7 -61 l3 -42 -55 -13 c-103 -24 -190 -53 -190
-62 0 -15 9 -14 229 39 295 71 406 92 433 82 28 -11 60 -2 -322 -96 -275 -68
-367 -95 -322 -95 7 0 122 29 255 64 325 85 426 109 441 103 7 -3 18 -41 25
-91 6 -48 14 -92 17 -100 3 -9 -29 -22 -113 -44 -232 -62 -545 -153 -566 -164
-42 -23 10 -21 116 5 134 33 184 40 192 26 10 -15 6 -17 -71 -35 -88 -20 -224
-67 -204 -71 8 -2 75 14 148 36 72 21 132 36 132 35 0 -2 -12 -11 -27 -19 -16
-9 -19 -13 -8 -10 11 4 49 13 85 21 36 9 120 33 188 56 68 22 129 37 136 35
12 -5 36 -117 36 -166 0 -17 -28 -28 -192 -81 -106 -34 -249 -80 -317 -102
-119 -40 -124 -41 -137 -23 -8 10 -14 24 -14 29 0 6 -13 31 -30 55 -21 33 -26
48 -19 58 8 8 5 21 -7 43 -10 16 -22 30 -26 30 -4 0 -8 7 -8 14 0 12 -6 13
-31 4 -40 -14 -48 -4 -9 12 23 9 29 17 25 34 -2 11 -11 53 -19 91 -8 39 -25
119 -36 178 -24 127 -45 172 -99 219 -47 40 -47 75 -2 83 14 3 70 19 124 37
115 37 197 93 278 190 277 333 112 847 -315 980 -83 26 -223 32 -306 13z m259
-56 c185 -42 354 -198 416 -382 31 -92 35 -231 9 -318 -55 -186 -209 -336
-403 -393 -140 -41 -338 -4 -454 86 -173 131 -250 278 -250 473 0 152 64 297
178 403 60 56 166 113 242 131 53 12 209 13 262 0z m-110 -1235 c9 -8 -26 -79
-42 -82 -23 -5 -67 42 -67 71 0 23 2 24 53 19 28 -2 54 -6 56 -8z m661 -44 c0
-11 -13 -21 -39 -28 -51 -16 -51 -16 -51 13 0 20 8 29 33 40 35 15 57 5 57
-25z m-150 10 c-20 -13 -33 -13 -25 0 3 6 14 10 23 10 15 0 15 -2 2 -10z m40
-31 c0 -11 -4 -17 -10 -14 -5 3 -10 15 -10 26 0 11 5 17 10 14 6 -3 10 -15 10
-26z m-483 -75 c22 -49 26 -75 33 -222 9 -178 24 -291 46 -333 18 -37 101
-116 152 -146 52 -30 53 -43 6 -43 -112 0 -442 -122 -522 -193 -22 -20 -22
-20 -37 -1 -15 20 -39 88 -50 143 l-7 34 47 -37 c26 -20 54 -36 61 -36 18 0
18 -21 -1 -46 -29 -39 -13 -33 63 24 43 31 89 65 102 74 l25 17 -31 -8 c-30
-8 -35 -5 -112 73 -66 67 -80 85 -76 106 3 15 -3 34 -13 47 -16 21 -22 22 -56
12 -21 -5 -52 -9 -70 -7 -25 3 -15 7 41 17 l72 14 0 55 c0 137 51 352 110 462
l11 21 26 -21 c41 -32 87 -27 120 15 15 19 29 35 31 35 2 0 15 -25 29 -56z
m683 -253 c0 -5 2 -16 6 -24 6 -16 -38 -40 -93 -52 -31 -6 -33 -5 -33 19 0 20
5 26 23 26 12 0 36 9 52 20 33 22 45 25 45 11z m-1932 -49 c-66 -24 -66 -24
-56 -53 5 -15 8 -36 5 -46 -2 -11 -7 -5 -11 19 -5 24 -15 38 -28 41 -33 9 -16
27 42 47 70 23 93 28 105 21 5 -2 -21 -16 -57 -29z m112 -11 c20 -39 12 -50
-52 -70 l-63 -19 -13 30 c-7 17 -12 32 -10 33 4 4 110 43 120 44 4 1 12 -8 18
-18z m1310 -161 c-46 -25 -63 -25 -25 0 17 11 37 20 45 20 8 -1 -1 -9 -20 -20z
m77 -182 c7 -16 9 -28 4 -28 -10 0 -131 109 -131 119 0 3 12 14 27 23 l27 16
31 -51 c17 -29 36 -64 42 -79z m566 115 c9 -9 -44 -35 -59 -29 -7 3 -14 1 -16
-4 -4 -13 -68 -25 -68 -12 0 5 15 15 33 22 17 6 41 16 52 20 25 11 50 12 58 3z
m-2402 -43 c1 -11 3 -10 6 3 8 29 22 19 33 -25 6 -24 22 -82 36 -130 32 -116
32 -122 -12 -136 -39 -12 -37 -13 -53 53 -5 22 -17 67 -25 100 -45 174 -45
177 -11 162 14 -7 25 -19 26 -27z m1248 26 c-2 -2 -15 -7 -29 -10 l-25 -7 25
15 c21 12 42 14 29 2z m33 -103 c13 -16 48 -50 77 -77 l53 -49 -21 -21 -21
-21 -46 25 c-49 27 -134 94 -146 115 -5 9 3 20 25 33 43 27 50 27 79 -5z
m-742 -142 c0 -11 -14 -22 -37 -30 -21 -8 -43 -20 -51 -27 -20 -20 -39 -17
-45 8 -7 26 8 48 33 48 10 0 33 6 51 14 38 16 49 13 49 -13z m2490 -213 c0
-97 -1 -101 -30 -134 -16 -19 -33 -46 -36 -59 -17 -66 -44 4 -43 108 l2 82 7
-83 c4 -45 10 -86 14 -89 3 -3 6 38 6 93 0 110 8 174 21 174 5 0 10 -15 10
-32 l2 -33 4 30 c5 34 21 57 34 49 5 -3 9 -50 9 -106z m-1802 71 c2 -11 -12
-19 -50 -28 -56 -14 -343 -116 -440 -157 -64 -27 -92 -30 -86 -11 6 17 63 43
208 94 69 24 172 61 230 82 113 41 133 44 138 20z m85 -63 c40 -19 88 -37 107
-41 19 -4 52 -16 72 -26 21 -11 43 -19 51 -19 19 0 218 -67 228 -77 4 -4 3
-31 -3 -58 -10 -50 -11 -51 -66 -72 -54 -19 -149 -59 -527 -218 -88 -37 -181
-76 -208 -86 l-47 -19 -103 46 c-56 25 -113 52 -127 59 -14 7 -43 20 -65 30
l-40 17 28 14 c15 8 74 30 130 49 107 35 208 76 417 167 102 45 250 104 330
131 8 3 3 6 -13 6 -15 1 -89 -24 -165 -55 -75 -31 -186 -77 -247 -101 -60 -24
-157 -64 -215 -88 -58 -24 -118 -47 -135 -51 -16 -4 -54 -18 -84 -30 -47 -21
-58 -23 -100 -12 -25 6 -73 25 -106 41 -33 17 -91 42 -129 57 l-69 27 64 17
c35 9 91 26 124 36 33 11 110 35 170 54 61 19 146 48 190 66 44 18 130 50 190
72 61 22 144 53 185 68 41 15 79 28 83 29 5 0 41 -14 80 -33z m-1190 13 c14
-6 30 -22 36 -35 12 -27 9 -29 -39 -37 -17 -3 -14 -5 13 -6 48 -1 49 -24 2
-38 -34 -11 -36 -10 -49 20 -7 18 -16 49 -20 70 -6 33 -5 37 13 37 11 0 31 -5
44 -11z m2774 -151 c-2 -13 -4 -3 -4 22 0 25 2 35 4 23 2 -13 2 -33 0 -45z
m-2717 23 c0 -5 -12 -16 -26 -26 -30 -20 -26 -32 6 -15 27 14 28 14 35 -36 6
-36 5 -41 -20 -52 -39 -18 -40 -17 -55 41 -7 28 -15 58 -17 64 -3 7 6 17 18
22 31 13 59 13 59 2z m455 -31 c7 -11 -52 -40 -80 -40 -26 0 -16 19 18 34 40
18 54 19 62 6z m-105 -35 c0 -16 -27 -32 -37 -21 -7 7 16 36 28 36 5 0 9 -7 9
-15z m-95 -24 c3 -5 1 -12 -5 -16 -5 -3 -10 1 -10 9 0 18 6 21 15 7z m-91
-177 c60 -30 115 -54 123 -54 9 0 13 -15 13 -50 0 -54 -6 -56 -60 -20 -14 9
-50 27 -80 39 -67 28 -80 38 -80 62 0 10 -4 20 -9 23 -5 4 -7 -3 -4 -14 4 -14
0 -20 -11 -20 -11 0 -16 10 -17 33 -2 31 -2 31 -6 4 -5 -35 -27 -30 -31 7 -8
70 1 69 162 -10z m1882 -89 c-4 -12 -17 -15 -48 -13 -60 4 -61 26 -1 30 57 4
57 3 49 -17z m-1682 6 c3 -4 19 -11 36 -15 19 -3 34 -14 40 -28 5 -13 9 -17 9
-10 1 7 6 10 11 7 14 -9 12 -58 -3 -79 -13 -18 -14 -18 -32 0 -10 11 -19 17
-19 15 -1 -2 -18 2 -38 9 -37 14 -38 16 -38 62 0 35 4 48 14 48 8 0 17 -4 20
-9z m1696 -48 c0 -6 -19 -23 -42 -37 -24 -14 -36 -26 -28 -26 8 0 29 9 45 20
29 19 65 27 65 14 0 -4 -13 -22 -30 -41 -16 -18 -30 -41 -30 -50 0 -9 14 5 31
30 18 27 41 50 55 53 35 9 41 -2 17 -29 -27 -29 -46 -67 -38 -75 4 -4 11 1 16
10 28 51 62 78 95 78 l34 0 -40 -40 c-26 -26 -40 -49 -40 -66 0 -25 -2 -26
-36 -19 -20 3 -76 25 -125 47 -95 44 -97 46 -83 114 5 28 7 29 70 29 43 0 64
-4 64 -12z m-1407 -88 c62 -26 67 -30 67 -59 0 -55 -9 -57 -85 -20 -38 18 -87
40 -107 49 -35 13 -38 18 -38 53 0 21 3 42 6 45 4 3 25 -4 48 -17 22 -13 71
-36 109 -51z m1687 9 c50 -20 88 -68 70 -89 -29 -35 -205 -50 -216 -20 -9 23
15 72 48 100 35 29 44 30 98 9z m-681 -30 c2 -2 -8 -8 -22 -15 -31 -14 -77 -4
-77 16 0 12 10 13 48 8 26 -3 49 -7 51 -9z m448 -89 c104 -36 185 -42 256 -18
54 19 57 19 57 2 0 -25 -82 -54 -151 -53 -73 1 -133 18 -239 66 -108 50 -131
65 -124 82 5 12 19 8 68 -20 35 -19 94 -45 133 -59z m-475 50 c56 10 48 -11
-14 -41 -47 -22 -49 -24 -18 -19 19 4 46 14 58 22 38 24 37 6 -2 -37 -20 -22
-36 -43 -36 -47 0 -3 17 12 38 35 36 39 74 54 86 34 3 -5 -15 -27 -40 -50 -24
-23 -44 -48 -44 -55 0 -8 20 6 45 30 47 44 89 63 106 46 7 -7 -1 -18 -24 -32
-38 -23 -67 -61 -67 -86 0 -17 -35 -21 -45 -5 -4 6 -32 24 -63 40 -31 16 -68
38 -80 48 -25 20 -25 16 4 119 2 10 10 10 31 2 15 -5 44 -7 65 -4z m301 -130
c20 -14 44 -39 52 -55 15 -28 14 -30 -10 -46 -51 -33 -245 -26 -245 9 0 21 36
67 71 92 44 31 85 31 132 0z m-293 -84 c68 -42 159 -71 220 -71 19 1 59 9 88
19 37 13 52 14 52 6 0 -42 -110 -72 -200 -55 -99 18 -290 129 -298 174 -3 15
2 14 35 -8 21 -14 67 -44 103 -65z"/>
<path d="M2564 3852 c-33 -22 -47 -129 -23 -175 62 -114 180 -39 155 99 -10
49 -46 84 -88 84 -18 0 -38 -4 -44 -8z"/>
<path d="M2110 3773 c-41 -36 -50 -95 -25 -158 21 -56 53 -79 94 -70 87 19 99
183 19 239 -32 23 -53 20 -88 -11z"/>
<path d="M1803 3650 c0 -36 2 -50 4 -32 2 17 2 47 0 65 -2 17 -4 3 -4 -33z"/>
<path d="M1763 3650 c0 -30 2 -43 4 -27 2 15 2 39 0 55 -2 15 -4 2 -4 -28z"/>
<path d="M1725 3588 c11 -177 102 -337 252 -441 53 -37 164 -75 239 -82 l59
-6 -70 20 c-90 24 -152 49 -190 75 -63 42 -127 102 -158 145 -75 105 -82 124
-126 321 -10 40 -10 37 -6 -32z"/>
<path d="M1775 3540 c7 -68 60 -181 114 -241 49 -54 54 -39 7 22 -53 70 -94
150 -111 214 l-15 60 5 -55z"/>
<path d="M1812 3560 c0 -14 2 -19 5 -12 2 6 2 18 0 25 -3 6 -5 1 -5 -13z"/>
<path d="M2700 3553 c-156 -27 -599 -129 -627 -144 -25 -14 -27 -18 -14 -37 7
-11 21 -10 77 7 66 20 293 70 514 112 58 12 108 26 112 32 7 11 -18 39 -31 36
-3 -1 -17 -4 -31 -6z"/>
<path d="M1820 3524 c0 -40 67 -161 111 -199 26 -23 20 -10 -28 56 -18 25 -44
70 -57 100 -14 30 -26 49 -26 43z"/>
<path d="M1972 3225 c15 -17 42 -39 60 -49 39 -22 30 -13 -37 39 -42 33 -46
34 -23 10z"/>
<path d="M2308 3053 c7 -3 16 -2 19 1 4 3 -2 6 -13 5 -11 0 -14 -3 -6 -6z"/>
<path d="M2210 2370 c-8 -5 -10 -10 -5 -10 6 0 17 5 25 10 8 5 11 10 5 10 -5
0 -17 -5 -25 -10z"/>
<path d="M2205 2190 l-70 -6 65 -2 c36 0 83 3 105 7 l40 9 -35 -1 c-19 0 -66
-3 -105 -7z"/>
<path d="M2280 2150 c-25 -5 -71 -11 -104 -15 -40 -5 -55 -10 -48 -17 13 -13
132 3 182 25 39 17 35 18 -30 7z"/>
<path d="M2358 2113 c7 -3 16 -2 19 1 4 3 -2 6 -13 5 -11 0 -14 -3 -6 -6z"/>
<path d="M2255 2085 c-27 -14 -42 -23 -33 -21 9 3 34 10 55 15 21 6 45 15 53
21 33 21 -25 10 -75 -15z"/>
<path d="M2385 2025 c-53 -18 -25 -18 45 0 38 9 46 13 25 13 -16 0 -48 -6 -70
-13z"/>
<path d="M762 2135 c0 -11 4 -33 8 -50 7 -27 8 -27 8 -5 0 14 -4 36 -8 50 -6
20 -8 21 -8 5z"/>
<path d="M752 2055 c0 -5 6 -26 13 -45 7 -19 14 -28 14 -20 0 8 -6 29 -14 45
-7 17 -13 26 -13 20z"/>
<path d="M1935 1646 c-89 -29 -213 -84 -192 -86 4 0 49 18 100 39 51 22 118
47 150 56 31 9 57 18 57 21 0 7 -13 4 -115 -30z"/>
<path d="M1675 1541 c-22 -11 -35 -19 -30 -19 14 -1 93 36 80 37 -5 0 -28 -8
-50 -18z"/>
<path d="M2200 1490 c-8 -5 -10 -10 -5 -10 6 0 17 5 25 10 8 5 11 10 5 10 -5
0 -17 -5 -25 -10z"/>
<path d="M2338 1485 c-54 -20 -311 -136 -325 -147 -7 -6 -18 -6 -24 -2 -8 5
-9 3 -4 -6 6 -10 4 -12 -9 -7 -10 4 -15 3 -11 -3 3 -6 1 -10 -6 -10 -7 0 -10
-2 -7 -5 5 -6 97 33 288 122 58 27 116 54 130 60 35 16 13 14 -32 -2z"/>
<path d="M2037 1428 c-70 -28 -126 -53 -124 -55 4 -4 257 93 265 102 12 11
-19 1 -141 -47z"/>
<path d="M1801 1253 c-63 -26 -110 -48 -104 -50 6 -2 64 19 129 46 66 28 112
50 104 50 -8 0 -67 -21 -129 -46z"/>
<path d="M1100 1322 c6 -13 14 -21 18 -18 3 4 -2 14 -12 24 -18 16 -18 16 -6
-6z"/>
<path d="M1154 1281 c4 -6 16 -16 28 -22 15 -8 18 -8 14 0 -4 6 -16 16 -28 22
-15 8 -18 8 -14 0z"/>
<path d="M1311 1240 c0 -14 28 -72 29 -59 0 4 -7 22 -15 40 -8 19 -14 27 -14
19z"/>
<path d="M1351 1204 c0 -11 3 -14 6 -6 3 7 2 16 -1 19 -3 4 -6 -2 -5 -13z"/>
<path d="M1446 1145 c4 -8 8 -15 10 -15 2 0 4 7 4 15 0 8 -4 15 -10 15 -5 0
-7 -7 -4 -15z"/>
<path d="M1482 1140 c0 -14 2 -19 5 -12 2 6 2 18 0 25 -3 6 -5 1 -5 -13z"/>
<path d="M1560 1089 c0 -5 5 -7 10 -4 6 3 10 8 10 11 0 2 -4 4 -10 4 -5 0 -10
-5 -10 -11z"/>
<path d="M1600 1075 c0 -13 4 -14 20 -5 11 6 20 13 20 15 0 3 -9 5 -20 5 -11
0 -20 -7 -20 -15z"/>
<path d="M3621 2720 c0 -19 4 -44 9 -55 7 -16 9 -11 9 20 0 22 -4 47 -9 55 -7
11 -10 6 -9 -20z"/>
<path d="M3687 2726 c-9 -13 -19 -37 -23 -52 -6 -25 -2 -23 25 16 17 25 31 48
31 53 0 15 -18 6 -33 -17z"/>
<path d="M3941 2706 c-8 -14 -12 -29 -8 -32 7 -7 29 34 25 47 -2 6 -10 -1 -17
-15z"/>
<path d="M3480 2713 c0 -13 52 -94 57 -89 3 2 -2 15 -11 28 -9 12 -16 30 -16
39 0 9 -7 19 -15 23 -8 3 -15 3 -15 -1z"/>
<path d="M3993 2708 c-23 -30 -24 -41 -2 -21 12 12 20 25 17 28 -3 3 -10 0
-15 -7z"/>
<path d="M3880 2691 c0 -12 5 -21 10 -21 6 0 10 6 10 14 0 8 -4 18 -10 21 -5
3 -10 -3 -10 -14z"/>
<path d="M3706 2668 l-17 -33 20 24 c18 20 27 41 18 41 -1 0 -11 -15 -21 -32z"/>
<path d="M3560 2679 c0 -17 20 -49 31 -49 5 0 3 14 -6 30 -16 31 -25 38 -25
19z"/>
<path d="M2950 2645 c-55 -12 -113 -33 -97 -34 5 -1 43 8 85 18 43 11 88 22
102 24 22 4 21 4 -5 5 -16 0 -55 -6 -85 -13z"/>
<path d="M3090 2620 c-20 -6 -21 -8 -5 -8 11 0 29 3 40 8 25 11 -1 11 -35 0z"/>
<path d="M2985 2595 c-27 -7 -61 -18 -75 -24 -22 -10 -21 -10 10 -5 46 9 149
42 130 42 -8 1 -37 -5 -65 -13z"/>
<path d="M3671 2462 c-7 -13 -11 -33 -8 -45 3 -20 4 -20 16 7 16 39 10 70 -8
38z"/>
<path d="M3600 2455 c0 -9 30 -65 35 -65 7 0 -16 60 -26 66 -5 3 -9 2 -9 -1z"/>
<path d="M3720 2441 c-12 -24 -13 -34 -1 -27 9 6 22 46 15 46 -2 0 -8 -9 -14
-19z"/>
<path d="M3160 2360 c-20 -6 -21 -8 -5 -8 11 0 29 3 40 8 25 11 -1 11 -35 0z"/>
<path d="M2738 2353 c7 -3 16 -2 19 1 4 3 -2 6 -13 5 -11 0 -14 -3 -6 -6z"/>
<path d="M3025 2324 c-118 -43 -141 -53 -123 -53 9 -1 56 14 105 33 49 18 98
36 108 39 20 5 20 5 0 6 -11 0 -51 -11 -90 -25z"/>
<path d="M1446 2314 c-26 -9 -46 -17 -44 -19 5 -5 108 25 108 31 0 6 -10 4
-64 -12z"/>
<path d="M2618 2323 c7 -3 16 -2 19 1 4 3 -2 6 -13 5 -11 0 -14 -3 -6 -6z"/>
<path d="M1540 2279 c-156 -46 -359 -113 -356 -117 3 -2 55 12 118 32 62 19
159 49 216 66 56 17 102 33 102 35 0 7 -7 5 -80 -16z"/>
<path d="M1719 2245 c-3 -2 -30 -11 -60 -20 -49 -14 -50 -15 -14 -11 42 4 121
34 94 35 -9 1 -18 -1 -20 -4z"/>
<path d="M1578 2203 c7 -3 16 -2 19 1 4 3 -2 6 -13 5 -11 0 -14 -3 -6 -6z"/>
<path d="M4225 2169 c-20 -18 -47 -51 -61 -75 -24 -41 -44 -57 -44 -34 0 13
-60 80 -71 80 -5 0 -9 -7 -9 -16 0 -21 40 -135 52 -149 14 -16 9 10 -11 56
-10 24 -22 57 -26 74 -6 29 -6 29 14 11 11 -10 30 -42 42 -72 12 -29 26 -51
29 -49 4 3 13 25 19 49 12 48 110 167 111 134 0 -9 -12 -30 -26 -47 -26 -32
-69 -129 -60 -138 3 -3 17 18 33 47 15 28 36 66 45 83 19 35 24 77 8 77 -5 0
-25 -14 -45 -31z"/>
<path d="M1025 2120 c-13 -5 -14 -9 -5 -9 8 0 24 4 35 9 13 5 14 9 5 9 -8 0
-24 -4 -35 -9z"/>
<path d="M3182 2113 c-24 -8 -41 -17 -39 -19 4 -5 97 26 97 32 0 6 -11 4 -58
-13z"/>
<path d="M932 2093 c-24 -8 -41 -17 -39 -19 2 -2 28 5 58 15 30 11 47 20 39
19 -8 0 -34 -6 -58 -15z"/>
<path d="M3100 2080 c-8 -5 -10 -10 -5 -10 6 0 17 5 25 10 8 5 11 10 5 10 -5
0 -17 -5 -25 -10z"/>
<path d="M1288 2073 c7 -3 16 -2 19 1 4 3 -2 6 -13 5 -11 0 -14 -3 -6 -6z"/>
<path d="M4259 2041 c-16 -16 -29 -35 -29 -42 0 -8 10 -2 23 11 12 14 31 33
42 42 13 11 15 18 7 18 -8 0 -27 -13 -43 -29z"/>
<path d="M1107 2022 c-59 -20 -104 -38 -100 -39 5 -2 60 15 123 36 63 22 108
40 100 40 -8 0 -64 -16 -123 -37z"/>
<path d="M4325 2051 c3 -5 -5 -18 -17 -28 -27 -21 -53 -53 -44 -53 3 0 24 16
46 36 37 33 44 54 19 54 -6 0 -8 -4 -4 -9z"/>
<path d="M3614 2005 c-67 -24 -135 -50 -150 -58 -16 -8 -92 -36 -169 -62 -129
-44 -204 -77 -124 -55 31 9 88 29 359 130 113 41 214 81 219 86 11 10 -23 0
-135 -41z"/>
<path d="M257 2000 c-3 -11 -1 -23 4 -26 5 -3 9 6 9 20 0 31 -6 34 -13 6z"/>
<path d="M200 2003 c0 -4 5 -15 10 -23 8 -13 10 -13 10 2 0 9 -4 20 -10 23 -5
3 -10 3 -10 -2z"/>
<path d="M484 1924 c11 -87 17 -107 29 -95 6 6 5 31 -3 75 -16 86 -35 101 -26
20z"/>
<path d="M918 1963 c6 -2 18 -2 25 0 6 3 1 5 -13 5 -14 0 -19 -2 -12 -5z"/>
<path d="M1726 1944 c-71 -24 -101 -41 -55 -29 44 11 155 54 139 54 -8 0 -46
-11 -84 -25z"/>
<path d="M3178 1933 c7 -3 16 -2 19 1 4 3 -2 6 -13 5 -11 0 -14 -3 -6 -6z"/>
<path d="M3138 1923 c7 -3 16 -2 19 1 4 3 -2 6 -13 5 -11 0 -14 -3 -6 -6z"/>
<path d="M366 1911 c-6 -9 54 -115 61 -107 3 3 -4 20 -16 39 -34 56 -23 65 19
17 29 -33 40 -40 40 -27 0 34 -90 101 -104 78z"/>
<path d="M3730 1910 c-8 -5 -10 -10 -5 -10 6 0 17 5 25 10 8 5 11 10 5 10 -5
0 -17 -5 -25 -10z"/>
<path d="M4554 1881 c-14 -22 -24 -47 -22 -56 2 -11 15 4 35 39 36 64 27 76
-13 17z"/>
<path d="M1575 1891 c-53 -25 -43 -26 20 -1 28 10 43 19 35 19 -8 0 -33 -8
-55 -18z"/>
<path d="M4467 1875 c8 -54 22 -80 22 -40 0 17 -6 41 -14 55 -14 24 -14 24 -8
-15z"/>
<path d="M551 1876 c-6 -16 -10 -34 -8 -40 3 -6 10 2 16 18 6 16 10 34 8 40
-3 6 -10 -2 -16 -18z"/>
<path d="M3660 1885 c-33 -19 -21 -19 21 0 19 8 27 14 19 14 -8 0 -26 -6 -40
-14z"/>
<path d="M1255 1870 c-27 -10 -43 -18 -35 -18 8 0 38 8 65 18 28 10 43 18 35
18 -8 0 -37 -8 -65 -18z"/>
<path d="M4612 1846 c-20 -19 -34 -38 -30 -42 9 -9 32 10 59 48 27 38 17 35
-29 -6z"/>
<path d="M3575 1849 c-22 -10 -29 -16 -15 -13 28 7 80 33 65 33 -5 0 -28 -9
-50 -20z"/>
<path d="M3470 1805 c-25 -13 -40 -24 -35 -24 6 0 30 11 55 24 25 13 41 24 35
24 -5 0 -30 -11 -55 -24z"/>
<path d="M1495 1795 c-39 -14 -40 -14 -5 -8 41 7 82 22 60 22 -8 0 -33 -7 -55
-14z"/>
<path d="M1020 1790 c-21 -7 -21 -8 -5 -9 11 0 27 4 35 9 18 11 5 11 -30 0z"/>
<path d="M4752 1757 c-25 -27 -30 -46 -6 -27 15 13 38 50 31 50 -2 0 -13 -10
-25 -23z"/>
<path d="M1286 1727 c-60 -23 -104 -43 -98 -45 6 -2 62 17 124 42 141 57 121
59 -26 3z"/>
<path d="M4701 1752 c-17 -31 -13 -40 5 -14 9 13 14 26 11 29 -3 2 -10 -4 -16
-15z"/>
<path d="M4803 1758 c-23 -30 -24 -41 -2 -21 12 12 20 25 17 28 -3 3 -10 0
-15 -7z"/>
<path d="M4290 1726 c0 -8 24 -52 53 -99 31 -49 61 -112 71 -148 10 -35 20
-72 23 -83 3 -11 1 -16 -5 -12 -6 4 -1 -22 11 -56 l22 -63 3 53 c5 94 -51 257
-118 342 -16 21 -30 41 -30 44 0 15 32 3 63 -23 65 -57 109 -171 123 -316 9
-91 20 -112 29 -54 17 105 132 289 181 289 16 0 19 -16 4 -25 -34 -21 -133
-212 -145 -280 l-7 -40 29 45 c30 46 100 107 110 96 3 -3 -10 -23 -30 -45 -20
-22 -43 -55 -52 -73 -13 -27 -7 -23 39 26 66 72 84 102 69 117 -12 12 -44 -1
-80 -34 -15 -13 -23 -16 -23 -7 0 17 56 114 97 169 37 49 41 69 17 78 -44 17
-140 -73 -184 -171 l-28 -61 -12 45 c-35 137 -61 196 -103 237 -23 22 -52 46
-64 52 -30 15 -63 14 -63 -3z"/>
<path d="M3270 1720 c-8 -5 -10 -10 -5 -10 6 0 17 5 25 10 8 5 11 10 5 10 -5
0 -17 -5 -25 -10z"/>
<path d="M3185 1684 c-27 -13 -39 -21 -25 -18 29 7 90 34 90 40 0 7 -15 2 -65
-22z"/>
<path d="M179 1672 c6 -12 16 -24 22 -28 8 -4 8 -1 0 14 -6 12 -16 24 -22 28
-8 4 -8 1 0 -14z"/>
<path d="M230 1676 c0 -21 11 -46 20 -46 10 0 0 49 -11 56 -5 3 -9 -1 -9 -10z"/>
<path d="M563 1637 c3 -27 10 -54 17 -60 10 -10 11 -3 6 32 -10 66 -28 88 -23
28z"/>
<path d="M287 1655 c-4 -8 -2 -17 3 -20 6 -4 10 3 10 14 0 25 -6 27 -13 6z"/>
<path d="M626 1622 c-5 -18 -5 -36 -2 -39 7 -7 19 43 13 59 -2 7 -7 -2 -11
-20z"/>
<path d="M3820 1603 c-33 -32 -100 -153 -85 -153 3 0 22 26 41 58 20 31 53 74
72 95 20 20 30 37 24 37 -7 0 -31 -17 -52 -37z"/>
<path d="M3889 1601 c-34 -39 -114 -179 -107 -186 2 -2 28 17 58 42 52 44 130
87 139 78 2 -3 -9 -15 -25 -27 -54 -42 -104 -90 -104 -100 0 -5 17 3 38 18 58
43 132 116 126 126 -9 14 -75 -2 -121 -29 -24 -13 -43 -20 -43 -15 0 8 10 23
66 100 29 40 8 35 -27 -7z"/>
<path d="M500 1618 c1 -15 24 -48 34 -48 4 0 0 14 -9 30 -16 32 -25 38 -25 18z"/>
<path d="M3275 1595 c-66 -27 -95 -33 -52 -9 15 8 27 16 27 18 0 6 -144 -55
-154 -65 -19 -18 3 -20 40 -4 22 9 55 19 74 21 52 7 173 65 133 64 -5 0 -35
-12 -68 -25z"/>
<path d="M3387 1599 c-11 -6 -76 -31 -145 -55 -70 -25 -134 -52 -142 -61 -14
-14 -13 -15 10 -10 86 19 291 104 305 127 8 13 -5 12 -28 -1z"/>
<path d="M3379 1548 c-35 -16 -116 -50 -179 -75 -121 -47 -126 -50 -119 -58 7
-7 76 14 135 41 29 13 57 24 63 24 22 0 190 88 177 93 -8 3 -43 -8 -77 -25z"/>
<path d="M3385 1504 c-205 -93 -297 -138 -287 -142 6 -2 38 11 72 28 33 17 93
42 133 57 39 14 97 38 128 54 31 16 64 29 73 29 10 0 14 5 11 10 -10 16 -25
12 -130 -36z"/>
<path d="M2765 1520 c-3 -6 1 -7 9 -4 18 7 21 14 7 14 -6 0 -13 -4 -16 -10z"/>
<path d="M4207 1523 c-13 -12 -7 -38 18 -83 14 -25 40 -74 59 -110 19 -36 44
-74 55 -85 l22 -19 -11 29 c-6 15 -23 47 -39 70 -33 50 -101 169 -101 178 0 4
6 7 14 7 26 0 74 -59 128 -158 38 -70 54 -91 56 -75 3 22 -52 140 -85 180 -23
28 -83 73 -98 73 -7 0 -15 -3 -18 -7z"/>
<path d="M407 1494 c-3 -4 -4 -19 -1 -33 3 -15 -1 -52 -10 -81 -9 -30 -16 -70
-15 -89 l1 -36 15 45 c8 25 18 78 22 118 6 67 3 91 -12 76z"/>
<path d="M2768 1479 c-21 -11 -38 -26 -38 -34 0 -20 8 -19 54 8 71 40 55 64
-16 26z"/>
<path d="M3459 1489 c-13 -3 -52 -20 -86 -38 -35 -17 -88 -40 -118 -52 -30
-11 -57 -24 -60 -30 -10 -15 299 106 324 127 5 5 -33 1 -60 -7z"/>
<path d="M302 1421 l-2 -74 -41 47 c-90 102 -141 91 -70 -15 23 -34 39 -64 37
-66 -2 -3 -18 3 -35 11 -30 16 -61 21 -61 10 0 -11 85 -114 94 -114 9 0 0 13
-47 69 -15 18 -26 35 -23 38 7 7 65 -35 98 -72 57 -63 14 57 -48 132 -20 24
-33 47 -30 50 15 16 81 -56 131 -141 7 -13 9 3 7 56 -4 120 -9 148 -10 69z"/>
<path d="M363 1414 c-24 -52 -44 -154 -30 -154 3 0 11 26 17 58 7 31 21 77 31
101 29 67 13 63 -18 -5z"/>
<path d="M3410 1409 c-102 -44 -122 -56 -77 -45 32 7 198 85 182 85 -5 0 -53
-18 -105 -40z"/>
<path d="M710 1427 c0 -14 29 -77 35 -77 4 0 3 10 -1 23 -7 24 -34 66 -34 54z"/>
<path d="M2768 1399 c-44 -23 -52 -45 -10 -27 30 13 58 35 51 42 -2 2 -21 -5
-41 -15z"/>
<path d="M627 1403 c-6 -11 9 -49 22 -57 6 -4 4 6 -4 21 -21 41 -7 43 25 3 16
-19 31 -32 35 -29 7 8 -49 69 -63 69 -6 0 -13 -3 -15 -7z"/>
<path d="M3911 1394 c-19 -8 -32 -16 -29 -19 6 -7 76 14 83 25 9 14 -15 12
-54 -6z"/>
<path d="M3258 1350 c-25 -7 -79 -40 -67 -40 4 0 31 11 60 24 54 25 57 31 7
16z"/>
<path d="M2340 1340 c-8 -5 -10 -10 -5 -10 6 0 17 5 25 10 8 5 11 10 5 10 -5
0 -17 -5 -25 -10z"/>
<path d="M2734 1329 l-19 -22 33 17 c34 18 40 26 19 26 -8 0 -22 -10 -33 -21z"/>
<path d="M3120 1340 c-9 -6 -10 -10 -3 -10 6 0 15 5 18 10 8 12 4 12 -15 0z"/>
<path d="M423 1283 c-3 -10 -8 -22 -10 -28 -3 -5 3 -1 11 9 16 20 21 36 11 36
-3 0 -8 -8 -12 -17z"/>
<path d="M2738 1288 c-16 -5 -28 -14 -28 -19 0 -13 5 -12 42 11 35 21 30 25
-14 8z"/>
<path d="M2362 1239 c-29 -12 -51 -23 -48 -26 7 -7 94 25 101 38 8 11 10 12
-53 -12z"/>
<path d="M2732 1238 c-18 -11 -31 -22 -28 -25 5 -6 63 24 71 37 9 15 -6 11
-43 -12z"/>
<path d="M3455 1250 c-13 -6 -15 -9 -5 -9 8 0 22 4 30 9 18 12 2 12 -25 0z"/>
<path d="M3523 1250 c-13 -5 -23 -12 -23 -16 0 -8 53 5 65 17 12 12 -12 11
-42 -1z"/>
<path d="M3804 1223 c-19 -20 -34 -42 -34 -47 0 -9 31 21 69 67 26 33 -2 17
-35 -20z"/>
<path d="M2075 1220 c-22 -11 -29 -17 -15 -14 29 8 80 33 65 33 -5 0 -28 -8
-50 -19z"/>
<path d="M2355 1209 c-16 -5 -41 -7 -55 -5 -14 3 -19 3 -12 -1 8 -3 -48 -29
-125 -58 -214 -82 -282 -116 -200 -102 27 5 29 4 13 -6 -10 -7 -28 -20 -40
-30 -16 -14 -12 -14 14 3 47 29 163 83 263 124 111 46 177 76 177 81 0 3 -1 5
-2 4 -2 0 -16 -5 -33 -10z"/>
<path d="M2740 1202 c-18 -11 -36 -24 -38 -31 -5 -16 49 11 67 33 17 20 13 20
-29 -2z"/>
<path d="M3841 1189 c-33 -43 -21 -45 19 -4 20 21 28 35 19 34 -7 0 -25 -14
-38 -30z"/>
<path d="M700 1198 c0 -7 4 -40 10 -72 5 -33 8 -61 6 -63 -1 -2 -14 12 -27 31
-47 65 -139 122 -139 85 0 -5 17 -36 39 -67 37 -56 71 -115 71 -127 0 -3 -22
6 -50 20 -54 28 -80 32 -80 13 1 -25 89 -108 114 -108 5 0 -15 22 -45 50 -64
58 -47 67 31 15 29 -19 56 -35 61 -35 5 0 1 22 -9 48 -16 42 -37 76 -101 163
-23 32 6 22 50 -18 24 -22 57 -69 80 -115 39 -78 50 -93 44 -60 -23 112 -36
194 -32 205 5 13 38 -87 57 -175 13 -55 30 -78 30 -40 0 59 -77 262 -99 262
-6 0 -11 -6 -11 -12z"/>
<path d="M2000 1190 c-8 -5 -10 -10 -5 -10 6 0 17 5 25 10 8 5 11 10 5 10 -5
0 -17 -5 -25 -10z"/>
<path d="M2210 1106 c-181 -84 -295 -145 -287 -153 8 -8 439 195 461 217 25
25 -12 11 -174 -64z"/>
<path d="M3889 1170 c-13 -10 -19 -19 -13 -20 6 0 19 9 29 20 23 26 14 26 -16
0z"/>
<path d="M2725 1135 c-25 -12 -26 -14 -5 -9 14 4 29 10 35 15 12 12 5 11 -30
-6z"/>
<path d="M1823 1120 c-24 -10 -43 -21 -43 -24 0 -4 90 32 99 40 11 10 -18 2
-56 -16z"/>
<path d="M2155 1024 c-235 -113 -283 -141 -170 -99 139 51 443 207 399 205 -5
-1 -108 -48 -229 -106z"/>
<path d="M2210 1000 c-74 -38 -141 -69 -148 -70 -19 0 -135 -61 -129 -67 11
-10 312 120 417 181 38 22 41 26 20 25 -14 0 -86 -31 -160 -69z"/>
<path d="M4140 1051 c0 -20 17 -37 27 -28 7 8 -7 47 -18 47 -5 0 -9 -9 -9 -19z"/>
<path d="M4210 1051 c-13 -25 -13 -34 0 -26 16 10 32 45 21 45 -6 0 -15 -9
-21 -19z"/>
<path d="M4273 1053 c-3 -10 -8 -22 -10 -28 -3 -5 3 -1 11 9 16 20 21 36 11
36 -3 0 -8 -8 -12 -17z"/>
<path d="M1242 1043 c-64 -23 -46 -25 23 -3 33 10 51 19 40 19 -11 0 -39 -7
-63 -16z"/>
<path d="M1288 1022 c-89 -36 -115 -57 -36 -29 82 30 163 67 143 65 -11 0 -59
-17 -107 -36z"/>
<path d="M1410 1033 c-8 -3 -51 -21 -95 -40 -44 -19 -91 -39 -104 -44 -13 -5
-21 -12 -18 -15 7 -7 131 38 202 74 52 27 61 41 15 25z"/>
<path d="M1405 984 c-44 -19 -102 -42 -128 -51 -26 -8 -45 -18 -43 -21 14 -14
246 74 262 99 9 15 -8 10 -91 -27z"/>
<path d="M2283 981 c-45 -22 -92 -43 -105 -47 -40 -12 -153 -67 -156 -76 -2
-4 -8 -6 -13 -3 -4 3 -23 -2 -41 -11 -47 -25 -19 -28 38 -5 211 83 344 147
359 171 8 14 10 14 -82 -29z"/>
<path d="M1400 932 c-74 -31 -128 -58 -119 -60 20 -4 291 103 282 111 -11 12
-25 8 -163 -51z"/>
<path d="M3748 943 c-9 -10 -30 -45 -46 -78 -24 -47 -31 -55 -32 -35 0 14 -5
32 -11 40 -8 11 -9 7 -5 -19 3 -18 6 -46 6 -62 0 -41 15 -36 28 9 6 20 27 64
47 96 36 59 41 81 13 49z"/>
<path d="M1445 897 c-86 -35 -146 -66 -130 -66 28 -1 235 82 235 93 0 12 -27
4 -105 -27z"/>
<path d="M1076 890 c-3 -18 -6 -55 -6 -82 l0 -50 -34 21 c-39 25 -56 27 -56 6
0 -17 60 -88 68 -80 3 3 -7 19 -23 35 -32 34 -27 51 7 26 13 -9 34 -24 47 -33
23 -17 23 -17 18 12 -16 80 -18 115 -9 115 10 0 15 -14 42 -110 14 -50 11 -52
49 50 l20 55 1 -70 c0 -49 3 -66 10 -55 12 19 13 150 1 150 -4 0 -22 -25 -38
-56 l-30 -57 -22 64 c-29 88 -37 98 -45 59z"/>
<path d="M3797 888 c-33 -36 -73 -106 -64 -114 2 -3 28 28 56 67 57 78 61 103
8 47z"/>
<path d="M2235 895 c-25 -12 -26 -14 -5 -9 28 7 60 23 45 23 -5 0 -23 -6 -40
-14z"/>
<path d="M1540 882 c-19 -10 -62 -28 -95 -40 -57 -22 -151 -70 -110 -57 11 4
54 18 95 32 68 22 160 67 160 78 0 9 -14 5 -50 -13z"/>
<path d="M870 886 c0 -2 7 -7 16 -10 8 -3 12 -2 9 4 -6 10 -25 14 -25 6z"/>
<path d="M3831 815 c-33 -38 -41 -56 -16 -35 18 15 59 70 52 70 -3 0 -19 -16
-36 -35z"/>
<path d="M3598 811 c9 -16 19 -28 21 -25 6 6 -21 54 -30 54 -5 0 0 -13 9 -29z"/>
<path d="M1560 813 c-54 -21 -122 -54 -118 -58 6 -6 129 42 142 55 11 11 1 12
-24 3z"/>
<path d="M3315 793 c-47 -10 -85 -25 -85 -33 0 -8 117 23 128 34 6 7 -12 6
-43 -1z"/>
<path d="M1540 753 l-25 -15 30 7 c17 3 34 11 40 16 14 14 -17 9 -45 -8z"/>
<path d="M1496 668 c-8 -24 -17 -54 -18 -68 -3 -22 -6 -19 -37 28 -29 46 -57
72 -75 72 -11 0 -6 -36 13 -90 11 -30 18 -56 16 -58 -1 -2 -20 8 -40 23 -21
14 -51 25 -67 25 -25 0 -27 -3 -19 -18 10 -19 83 -82 111 -96 8 -4 -9 15 -38
43 -65 62 -45 70 36 15 30 -20 56 -34 58 -31 2 2 -9 35 -26 72 -17 38 -29 75
-28 83 3 16 63 -69 87 -123 12 -27 14 -28 21 -10 4 11 11 47 15 80 7 49 9 55
16 35 4 -14 8 -43 8 -65 1 -22 6 -47 12 -55 8 -11 9 5 5 60 -10 129 -23 150
-50 78z"/>
<path d="M2063 693 c-24 -5 -93 -75 -93 -95 0 -7 5 -5 13 5 16 22 87 77 99 77
5 0 -7 -20 -28 -45 -20 -25 -35 -48 -32 -51 6 -6 72 65 88 95 11 22 5 24 -47
14z"/>
<path d="M2243 678 c-12 -6 -24 -16 -27 -23 -2 -7 11 -4 34 9 44 23 62 16 35
-14 -22 -24 -9 -26 23 -4 33 23 28 44 -10 43 -18 0 -43 -5 -55 -11z"/>
<path d="M964 666 c23 -18 36 -20 36 -6 0 6 -4 10 -9 10 -5 0 -18 3 -28 6 -16
5 -16 4 1 -10z"/>
<path d="M3111 644 c-30 -8 -57 -17 -60 -20 -9 -9 71 7 104 21 40 18 22 17
-44 -1z"/>
<path d="M1690 607 c0 -20 4 -37 10 -37 5 0 7 14 3 33 -8 45 -13 47 -13 4z"/>
<path d="M2384 610 c-52 -11 -123 -41 -108 -46 6 -3 51 9 100 25 87 28 90 37
8 21z"/>
<path d="M3135 559 c-38 -17 -56 -27 -40 -24 32 7 136 53 120 54 -5 0 -41 -14
-80 -30z"/>
<path d="M2045 551 c-22 -11 -36 -20 -32 -20 13 -1 117 30 117 35 0 10 -49 2
-85 -15z"/>
<path d="M2627 536 c-9 -14 -26 -60 -38 -103 -11 -43 -22 -84 -25 -92 -2 -7
-20 19 -40 57 -47 96 -124 160 -111 95 6 -30 85 -224 105 -258 37 -63 -14 97
-59 188 -17 32 -28 62 -25 65 17 16 90 -98 116 -183 20 -64 26 -60 39 27 22
148 61 250 61 161 0 -21 -9 -90 -20 -153 -11 -63 -20 -117 -20 -119 0 -3 16
22 36 55 41 68 71 102 114 127 45 27 39 2 -15 -59 -42 -48 -99 -143 -91 -151
7 -8 126 143 153 195 37 71 -31 66 -109 -10 l-50 -49 8 48 c12 70 11 176 -2
180 -6 2 -19 -7 -27 -21z"/>
<path d="M2860 533 c0 -5 7 -18 15 -29 12 -16 14 -16 15 -3 0 9 -7 22 -15 29
-8 7 -15 8 -15 3z"/>
<path d="M2948 534 c-5 -4 -8 -16 -8 -28 0 -14 3 -17 11 -9 6 6 9 19 7 28 -1
9 -6 13 -10 9z"/>
<path d="M3215 397 c-22 -53 -37 -121 -33 -153 2 -20 9 -2 22 59 10 48 23 87
29 87 6 0 8 -31 4 -87 l-7 -88 23 30 c12 16 32 41 44 55 19 21 22 22 23 7 0
-10 -12 -39 -27 -65 -15 -25 -22 -42 -15 -38 6 4 24 27 38 52 25 43 26 47 10
62 -16 16 -19 15 -49 -18 l-32 -35 3 83 c4 90 -8 108 -33 49z"/>
<path d="M2056 411 c-12 -19 -19 -101 -8 -101 5 0 13 23 17 51 7 49 3 70 -9
50z"/>
<path d="M1447 373 c-4 -3 -7 -11 -7 -17 0 -6 5 -5 12 2 6 6 9 14 7 17 -3 3
-9 2 -12 -2z"/>
<path d="M1980 351 c0 -29 14 -49 23 -34 8 12 -4 63 -14 63 -5 0 -9 -13 -9
-29z"/>
<path d="M2102 355 c-31 -39 -28 -55 4 -23 15 14 24 32 22 39 -3 8 -12 2 -26
-16z"/>
<path d="M3080 373 c1 -28 47 -167 57 -170 16 -6 -9 115 -31 150 -18 27 -26
33 -26 20z"/>
<path d="M1395 360 c-3 -5 -1 -10 4 -10 6 0 11 5 11 10 0 6 -2 10 -4 10 -3 0
-8 -4 -11 -10z"/>
<path d="M2330 357 c0 -17 90 -150 97 -143 3 3 -12 32 -33 63 -21 32 -41 62
-43 66 -9 21 48 -19 87 -61 40 -43 42 -44 25 -13 -34 64 -133 129 -133 88z"/>
<path d="M1920 332 c0 -5 10 -17 21 -28 22 -19 22 -19 10 3 -12 24 -31 39 -31
25z"/>
<path d="M2773 280 c-32 -13 -29 -22 5 -14 26 6 25 4 -13 -31 -34 -32 -36 -35
-10 -20 37 21 75 56 75 67 0 10 -29 9 -57 -2z"/>
<path d="M3030 270 c0 -14 39 -90 45 -90 3 0 -4 18 -15 40 -12 23 -16 40 -10
40 6 0 8 5 5 10 -8 13 -25 13 -25 0z"/>
<path d="M1732 193 c-24 -47 -26 -53 -13 -53 12 0 43 68 38 83 -2 7 -14 -7
-25 -30z"/>
<path d="M1798 193 c-15 -18 -33 -63 -25 -63 2 0 16 18 31 40 26 40 22 55 -6
23z"/>
<path d="M1840 155 c-7 -9 -11 -18 -8 -20 3 -3 11 1 18 10 7 9 11 18 8 20 -3
3 -11 -1 -18 -10z"/>
</g>
</svg>
