<?xml version="1.0" standalone="no"?>
<!DOCTYPE svg PUBLIC "-//W3C//DTD SVG 20010904//EN"
 "http://www.w3.org/TR/2001/REC-SVG-20010904/DTD/svg10.dtd">
<svg version="1.0" xmlns="http://www.w3.org/2000/svg"
 width="348.000000pt" height="348.000000pt" viewBox="0 0 348.000000 348.000000"
 preserveAspectRatio="xMidYMid meet">

<g transform="translate(0.000000,348.000000) scale(0.100000,-0.100000)"
fill="#000000" stroke="none">
<path d="M1125 3108 c-48 -41 -68 -84 -114 -236 -44 -147 -54 -193 -43 -208
11 -18 89 -54 115 -54 28 0 76 -49 134 -136 26 -39 34 -59 26 -61 -7 -3 -13
-11 -13 -19 0 -8 -6 -14 -12 -14 -7 0 -24 -3 -37 -7 -17 -4 -22 -3 -17 6 8 13
-32 80 -49 82 -5 1 -19 2 -30 3 -24 1 -179 202 -171 221 2 7 -3 23 -11 35 -15
21 -15 23 1 32 18 10 21 34 6 43 -6 4 -17 2 -25 -5 -11 -9 -17 -1 -33 42 -11
29 -23 78 -27 108 -10 78 -29 118 -58 125 -54 14 -99 -45 -115 -151 -11 -65
16 -354 36 -391 11 -19 22 -23 89 -25 l77 -3 47 -70 c34 -49 45 -73 38 -81 -6
-7 -9 -21 -7 -30 3 -16 -28 -25 -252 -74 -209 -45 -255 -58 -258 -73 -2 -12
52 -72 169 -187 160 -158 171 -171 158 -189 -8 -11 -66 -91 -130 -178 -150
-205 -199 -278 -199 -297 0 -10 19 -18 58 -26 31 -7 115 -25 186 -41 70 -16
130 -29 133 -29 2 0 3 -32 1 -72 l-3 -71 -130 -28 c-71 -15 -175 -37 -230 -49
-120 -26 -138 -30 -132 -36 2 -3 109 18 236 46 128 27 239 50 247 50 11 0 14
-8 12 -27 -3 -27 -5 -28 -160 -59 -183 -37 -188 -38 -188 -59 0 -8 -2 -15 -5
-15 -7 0 -288 -61 -304 -66 -8 -2 -12 -6 -10 -9 3 -2 43 5 89 15 107 24 117
25 100 5 -13 -15 -8 -16 40 -5 3 0 -3 7 -12 14 -15 11 -11 14 37 23 54 9 55 9
55 -13 0 -19 -11 -28 -50 -45 -39 -17 -48 -24 -39 -35 8 -9 5 -25 -9 -57 -19
-43 -23 -46 -79 -57 -32 -7 -65 -16 -73 -21 -22 -13 -2 -11 60 6 79 21 80 21
80 -28 0 -43 0 -44 47 -58 l47 -15 -124 -28 c-170 -38 -203 -47 -197 -52 2 -2
44 5 93 16 69 17 102 19 149 13 39 -5 50 -9 33 -11 -29 -3 -43 -31 -36 -69 4
-20 56 -31 168 -32 70 -1 68 -14 -3 -27 -21 -3 -36 -8 -33 -11 3 -3 39 2 82
12 61 14 99 15 193 9 l116 -7 -90 -24 c-49 -13 -103 -21 -118 -18 -18 3 -38
-2 -55 -14 -15 -10 -85 -34 -157 -51 -72 -18 -134 -37 -140 -42 -7 -7 -3 -8
10 -4 101 29 232 59 289 66 38 4 71 12 75 18 3 5 59 24 124 41 101 26 129 30
192 24 86 -7 127 1 119 22 -4 8 -1 15 4 15 6 0 17 6 24 13 7 7 45 20 83 29 70
17 70 17 87 -5 24 -30 22 -44 -7 -51 -31 -8 -32 -21 -2 -38 30 -18 234 -18
265 0 12 7 22 17 22 21 0 5 -10 11 -22 15 -22 6 -22 7 10 26 18 11 37 20 43
20 5 0 3 10 -5 22 -9 12 -16 26 -16 30 0 4 30 16 68 27 37 10 102 29 144 41
81 24 89 34 37 45 -45 10 -26 19 81 39 111 20 467 106 556 134 l62 19 57 -24
58 -25 136 27 c75 14 179 37 231 50 92 23 93 23 34 18 -34 -3 -69 -1 -78 4
-14 8 -12 12 18 28 27 15 35 26 39 54 5 36 0 43 -39 67 -29 17 -8 31 71 50 41
10 75 21 75 25 0 4 -31 -1 -69 -11 l-69 -18 18 53 18 53 -70 31 c-39 17 -79
31 -90 31 -12 0 -23 11 -30 31 -10 28 -13 30 -47 25 -20 -3 -60 -8 -88 -12
-29 -3 -53 -9 -53 -12 0 -4 -10 -19 -23 -34 -16 -20 -43 -33 -95 -47 l-73 -20
3 67 3 67 195 56 c147 42 196 60 198 73 4 18 -67 105 -246 300 l-110 120 162
168 c88 92 161 176 161 185 0 20 -10 23 -225 62 -381 70 -741 130 -753 125 -7
-3 -43 -43 -82 -90 -38 -46 -72 -84 -75 -83 -3 0 -56 57 -118 125 -74 80 -115
133 -117 149 -4 38 -54 87 -82 80 -19 -4 -32 10 -92 97 -52 75 -68 105 -60
114 7 9 7 19 0 33 -9 16 -7 21 10 26 28 9 20 41 -10 37 -23 -2 -23 -2 -17 80
4 46 9 106 12 134 4 39 2 55 -11 67 -25 26 -60 20 -100 -15z m80 12 c3 -5 -2
-10 -13 -10 -42 0 -107 -103 -137 -220 -9 -36 -25 -91 -36 -122 -10 -32 -19
-69 -19 -83 0 -15 -4 -24 -10 -20 -16 10 -12 40 16 134 67 221 75 242 118 287
42 43 68 54 81 34z m-2 -76 c-3 -7 -10 -11 -16 -7 -8 5 -7 8 1 11 10 3 10 7 0
20 -12 15 -11 15 4 4 9 -8 14 -20 11 -28z m-443 -5 c-34 -12 -55 -51 -70 -125
-10 -51 -9 -89 4 -213 9 -83 19 -158 22 -166 4 -8 1 -15 -4 -15 -22 0 -60 314
-47 392 15 90 48 139 93 137 l27 -1 -25 -9z m6 -71 c4 -7 4 -10 -1 -6 -4 4
-15 2 -24 -5 -14 -11 -14 -10 -2 6 16 20 18 21 27 5z m-36 -38 c0 -5 -5 -10
-11 -10 -5 0 -7 5 -4 10 3 6 8 10 11 10 2 0 4 -4 4 -10z m410 0 c0 -5 -5 -10
-11 -10 -5 0 -7 5 -4 10 3 6 8 10 11 10 2 0 4 -4 4 -10z m63 -7 c-7 -2 -21 -2
-30 0 -10 3 -4 5 12 5 17 0 24 -2 18 -5z m0 -30 c-7 -2 -21 -2 -30 0 -10 3 -4
5 12 5 17 0 24 -2 18 -5z m-393 -33 c-8 -5 -19 -10 -25 -10 -5 0 -3 5 5 10 8
5 20 10 25 10 6 0 3 -5 -5 -10z m393 3 c-7 -2 -21 -2 -30 0 -10 3 -4 5 12 5
17 0 24 -2 18 -5z m-460 -38 c-3 -9 -8 -14 -10 -11 -3 3 -2 9 2 15 9 16 15 13
8 -4z m87 10 c0 -2 -10 -9 -22 -15 -22 -11 -22 -10 -4 4 21 17 26 19 26 11z
m430 -4 c0 -5 -7 -11 -15 -15 -15 -5 -20 5 -8 17 9 10 23 9 23 -2z m-73 -7
c-3 -3 -12 -4 -19 -1 -8 3 -5 6 6 6 11 1 17 -2 13 -5z m-81 -16 c4 -7 3 -8 -4
-4 -15 9 -16 -6 -2 -22 5 -7 3 -6 -6 2 -9 8 -13 19 -10 25 9 14 13 14 22 -1z
m-276 -13 c-14 -8 -29 -14 -35 -14 -5 0 1 6 15 14 14 8 30 14 35 14 6 0 -1 -6
-15 -14z m78 -17 c-2 -6 -10 -14 -16 -16 -7 -2 -10 2 -6 12 7 18 28 22 22 4z
m-68 -18 c-8 -5 -19 -10 -25 -10 -5 0 -3 5 5 10 8 5 20 10 25 10 6 0 3 -5 -5
-10z m30 -21 c0 -4 -6 -9 -13 -12 -8 -3 -14 0 -14 7 0 7 6 13 14 13 7 0 13 -4
13 -8z m196 -13 c0 -17 -4 -22 -15 -18 -9 3 -12 1 -7 -6 3 -6 2 -13 -3 -16 -5
-4 -8 1 -7 10 1 8 9 20 17 25 8 5 10 9 6 9 -5 0 -5 5 -2 10 9 15 11 12 11 -14z
m84 10 c0 -2 -8 -10 -17 -17 -16 -13 -17 -12 -4 4 13 16 21 21 21 13z m60 -6
c0 -5 -4 -10 -9 -10 -4 0 -24 -11 -44 -24 -31 -22 -36 -22 -42 -8 -3 9 -3 14
0 10 4 -3 23 5 42 18 39 26 53 30 53 14z m18 -41 c-10 -7 -10 -9 2 -9 8 0 25
-16 37 -35 l23 -35 -25 -15 c-14 -8 -36 -22 -50 -30 -38 -24 -52 -7 -19 22
l29 24 -28 -17 c-27 -16 -29 -16 -45 0 -16 16 -15 19 23 53 22 19 31 30 20 25
-11 -6 -29 -20 -39 -31 -24 -26 -36 -27 -36 -3 0 35 85 89 108 69 11 -8 11
-12 0 -18z m-121 -41 c-3 -7 -5 -2 -5 12 0 14 2 19 5 13 2 -7 2 -19 0 -25z
m-207 14 c0 -9 -83 -62 -88 -57 -3 2 -1 12 3 22 5 10 8 21 7 25 -1 4 6 4 15 1
9 -4 14 -2 11 3 -4 5 7 10 23 11 16 1 29 -1 29 -5z m18 -32 c-2 -4 -24 -24
-50 -43 -33 -26 -48 -32 -51 -22 -6 13 17 38 62 68 23 15 45 14 39 -3z m-121
-12 c-3 -8 -6 -5 -6 6 -1 11 2 17 5 13 3 -3 4 -12 1 -19z m-37 8 c0 -2 -6 -9
-14 -15 -11 -9 -16 -9 -22 0 -4 7 -3 9 4 5 6 -3 13 -2 17 4 6 10 15 14 15 6z
m186 -28 c4 -7 0 -16 -11 -22 -10 -6 -31 -22 -47 -35 -27 -22 -31 -22 -45 -8
-14 14 -11 18 27 46 46 33 65 38 76 19z m364 -11 c0 -7 -18 -23 -40 -36 -22
-12 -43 -27 -47 -34 -7 -11 17 2 72 40 55 37 45 -4 -11 -45 l-45 -33 -19 23
c-28 34 -25 42 28 71 54 30 62 32 62 14z m-501 -37 c11 -24 11 -24 -3 -6 -9
11 -16 24 -16 30 0 12 5 7 19 -24z m161 12 c0 -15 -80 -73 -90 -67 -18 11 -11
24 27 50 38 25 63 32 63 17z m23 -29 c3 -5 -15 -26 -40 -47 -36 -31 -47 -36
-54 -25 -7 10 1 23 28 47 36 31 57 39 66 25z m360 -8 c6 -13 -66 -85 -85 -85
-16 0 -8 9 38 45 26 19 43 35 38 35 -6 0 -25 -13 -44 -30 -37 -31 -50 -36 -50
-20 0 10 77 70 90 70 5 0 10 -7 13 -15z m42 -28 c-16 -12 -54 -44 -83 -71 -50
-47 -86 -59 -46 -15 28 31 134 109 147 109 7 0 -1 -11 -18 -23z m-381 5 c5 -8
-76 -82 -88 -82 -17 0 -1 32 29 59 37 32 50 37 59 23z m26 -32 c0 -14 -72 -79
-87 -80 -25 0 -13 29 24 59 38 31 63 40 63 21z m-10 -50 c-19 -16 -30 -29 -23
-30 6 0 15 5 18 10 9 14 85 52 85 43 0 -5 -14 -14 -30 -22 -17 -7 -53 -35 -80
-61 -53 -52 -67 -52 -24 -1 23 28 22 42 -2 24 -5 -5 7 9 28 30 20 20 43 37 50
37 7 0 -3 -13 -22 -30z m240 -85 c13 -14 29 -25 35 -25 6 0 33 -30 61 -67 27
-38 77 -103 112 -146 41 -50 58 -79 50 -82 -81 -27 -82 -26 -129 34 -129 166
-219 292 -214 301 12 19 61 10 85 -15z m1069 -76 c251 -44 459 -84 463 -87 3
-4 -65 -81 -151 -171 l-157 -163 -330 62 c-202 39 -333 68 -340 77 -7 8 -15
34 -18 58 -5 27 -20 59 -41 86 -18 24 -31 48 -27 54 11 18 136 165 140 165 2
0 210 -36 461 -81z m-1368 9 c16 -7 65 -73 128 -170 57 -88 102 -160 100 -162
-7 -6 -384 -99 -410 -101 -22 -2 -53 24 -190 163 -90 91 -154 158 -141 148 12
-11 22 -14 22 -8 0 6 -4 14 -10 17 -18 11 -11 25 13 26 12 0 119 22 237 48
118 27 217 49 221 50 3 0 16 -4 30 -11z m1729 -245 c-57 -60 -112 -114 -124
-122 -12 -8 33 41 99 108 66 66 121 121 123 121 2 0 -42 -48 -98 -107z m-1160
-198 l0 -175 -24 0 c-21 0 -24 5 -30 63 -4 34 -16 107 -27 162 -10 54 -15 102
-11 106 7 7 40 15 75 18 16 1 17 -13 17 -174z m41 59 c13 -125 9 -256 -7 -246
-8 5 -13 68 -16 185 -5 193 7 224 23 61z m449 32 c96 -19 240 -46 319 -62
l143 -27 -58 -19 c-87 -27 -396 -119 -415 -123 -9 -2 -47 -13 -84 -24 -38 -12
-72 -18 -75 -14 -4 5 -12 62 -19 128 -7 66 -14 134 -17 152 -5 27 -3 31 13 27
10 -2 97 -19 193 -38z m-815 -18 c4 -21 12 -188 8 -188 -14 0 -189 38 -258 55
-33 9 -69 17 -80 19 -11 2 -21 5 -22 6 -2 1 -6 3 -10 5 -51 14 -63 18 -59 22
7 8 369 101 393 102 16 1 24 -6 28 -21z m1483 -306 c81 -90 147 -169 147 -175
0 -5 -31 -19 -70 -29 -86 -24 -474 -141 -572 -173 -62 -20 -74 -21 -84 -9 -17
20 -25 8 -8 -13 11 -16 11 -16 -2 -3 -53 52 -140 160 -135 168 3 5 -39 58 -94
118 -55 60 -100 112 -100 117 0 4 6 7 14 7 15 0 593 169 661 193 49 18 39 26
243 -201z m-1722 149 c93 -22 300 -65 459 -97 160 -32 292 -59 293 -60 5 -3
-294 -351 -308 -359 -6 -3 -10 -11 -10 -17 0 -6 7 -5 18 3 15 13 16 12 3 -3
-7 -10 -17 -16 -21 -13 -5 3 -24 -13 -42 -36 l-34 -41 -250 57 c-137 32 -336
77 -443 101 -106 23 -195 44 -197 46 -4 5 22 45 144 218 156 221 182 251 201
245 10 -3 94 -23 187 -44z m770 -1048 c-2 -2 -118 23 -257 56 -280 66 -624
149 -651 157 -16 5 -18 21 -18 155 l0 151 33 -7 c17 -4 137 -31 266 -61 163
-37 238 -51 247 -44 6 6 29 8 50 4 l39 -6 145 229 145 230 3 -430 c1 -237 0
-432 -2 -434z m190 525 c41 -82 77 -148 81 -148 3 0 49 14 102 31 53 17 119
37 146 44 28 8 80 23 118 34 l67 20 0 -158 0 -158 -187 -53 c-104 -28 -255
-71 -338 -95 -82 -25 -150 -43 -151 -42 -1 1 -4 194 -6 430 l-5 427 50 -92
c27 -51 82 -159 123 -240z m901 166 c-3 -3 -12 -4 -19 -1 -8 3 -5 6 6 6 11 1
17 -2 13 -5z m-70 -20 c-3 -3 -12 -4 -19 -1 -8 3 -5 6 6 6 11 1 17 -2 13 -5z
m-82 -24 c-11 -5 -27 -9 -35 -9 -9 0 -8 4 5 9 11 5 27 9 35 9 9 0 8 -4 -5 -9z
m-88 -26 c-3 -3 -12 -4 -19 -1 -8 3 -5 6 6 6 11 1 17 -2 13 -5z m-113 -34
c-43 -17 -345 -108 -339 -102 8 9 325 110 345 110 8 1 6 -3 -6 -8z m360 -65
c8 -31 1 -45 -23 -45 -16 0 -71 -70 -71 -90 0 -5 -5 -12 -11 -15 -7 -5 -10 9
-8 44 2 40 -2 58 -19 81 -12 16 -22 31 -22 34 0 5 50 11 111 14 32 2 38 -2 43
-23z m-134 -56 c0 -5 -19 -22 -42 -39 -24 -16 -48 -34 -55 -40 -19 -16 -23
-12 -23 25 0 28 5 37 24 45 13 5 32 20 43 34 l18 25 18 -20 c9 -12 17 -25 17
-30z m228 10 c29 -12 49 -25 46 -30 -3 -5 7 -9 21 -9 30 0 29 -12 -11 -92 -24
-46 -56 -66 -49 -30 2 9 4 39 4 65 1 29 5 46 11 42 6 -3 10 -1 10 4 0 6 -6 11
-14 11 -9 0 -16 -17 -21 -46 l-6 -45 -31 45 c-16 25 -34 48 -39 51 -9 6 10 55
21 55 4 0 30 -10 58 -21z m-1528 8 c0 -2 -10 -12 -22 -23 l-23 -19 19 23 c18
21 26 27 26 19z m1170 -67 c0 -31 -12 -40 -76 -56 -24 -6 -25 -5 -22 32 3 40
18 50 76 53 18 1 22 -4 22 -29z m309 -36 c23 -37 39 -69 37 -72 -3 -3 -24 16
-47 42 -30 34 -46 45 -60 41 -15 -5 -19 -1 -19 18 0 24 11 34 36 36 7 1 30
-29 53 -65z m-172 12 c1 -33 1 -33 -74 -53 -41 -11 -71 -17 -66 -12 15 15 128
98 134 99 3 0 5 -15 6 -34z m157 -61 c31 -35 51 -47 81 -52 93 -14 102 -52 24
-104 -28 -19 -57 -38 -64 -43 -8 -6 -26 -6 -46 0 l-34 10 58 19 c32 10 60 22
63 26 3 5 14 9 24 9 10 0 22 5 26 11 4 8 -4 9 -27 5 l-34 -7 25 16 25 16 -30
-7 c-33 -8 -41 -8 -132 2 -62 6 -63 7 -57 33 4 14 13 42 20 61 12 30 12 32 0
17 -8 -10 -20 -38 -27 -63 -7 -24 -19 -44 -25 -44 -18 0 -185 62 -180 67 2 2
54 17 117 34 62 16 115 31 117 34 14 14 38 1 76 -40z m-294 28 c0 -4 -12 -17
-27 -29 -24 -19 -26 -24 -14 -38 17 -20 15 -22 -26 -31 l-33 -7 0 45 c0 44 1
45 38 55 47 13 62 14 62 5z m-1782 -85 c-3 -20 -15 -26 -81 -43 l-77 -19 -22
21 c-25 26 -25 26 72 47 98 21 112 20 108 -6z m1884 -40 c23 -8 26 -13 18 -34
-5 -13 -7 -24 -4 -24 2 0 8 10 13 22 7 18 17 22 68 25 33 2 71 0 83 -5 22 -8
20 -11 -31 -35 -30 -14 -67 -37 -84 -51 l-30 -24 -52 19 -52 20 17 29 c17 29
16 29 -18 65 l-35 37 40 -17 c22 -9 52 -21 67 -27z m-2149 -36 c-22 -27 -45
-63 -52 -81 -8 -17 -17 -31 -22 -31 -18 0 -19 22 -3 83 l16 64 46 9 c26 6 49
9 50 8 2 -1 -14 -25 -35 -52z m82 12 c24 -31 25 -34 7 -25 -11 6 -24 11 -29
11 -4 0 30 -23 77 -51 l85 -50 -60 6 c-61 7 -153 31 -169 45 -6 6 49 96 60
100 1 0 14 -16 29 -36z m172 7 c0 -11 -5 -17 -10 -14 -4 2 -14 -1 -22 -7 -8
-6 -19 -9 -25 -5 -5 3 -10 1 -10 -4 0 -15 -57 -14 -63 2 -2 8 18 18 57 29 79
21 75 21 73 -1z m-52 -71 c18 -8 17 -9 -7 -9 -15 -1 -30 4 -33 9 -7 12 12 12
40 0z m-162 -107 l31 -33 -40 0 c-21 0 -49 -3 -60 -6 -18 -5 -22 0 -28 29 -4
24 -1 47 10 71 l17 36 20 -33 c10 -17 33 -47 50 -64z m120 51 l66 -7 -28 -41
c-15 -22 -42 -67 -60 -98 -18 -32 -36 -58 -39 -58 -4 1 -22 9 -41 19 l-34 18
39 29 c22 15 41 29 43 31 2 1 -24 32 -58 69 -33 37 -61 70 -61 75 0 4 24 -1
54 -11 29 -11 83 -22 119 -26z m212 12 c61 -13 103 -26 95 -29 -8 -3 -64 -17
-123 -30 -115 -26 -132 -23 -108 22 16 29 14 37 -11 49 -22 10 -22 11 7 11 17
0 80 -10 140 -23z m-470 -13 c22 -25 34 -63 19 -63 -3 0 -21 12 -40 26 -36 28
-42 24 -19 -16 18 -31 19 -43 3 -34 -7 4 4 -11 26 -34 21 -22 54 -48 75 -58
62 -32 101 -74 69 -74 -7 0 -58 15 -114 32 l-102 33 -6 40 c-4 28 0 56 13 91
11 29 17 55 13 58 -6 7 16 26 31 26 4 0 19 -12 32 -27z m798 -59 c92 -21 165
-39 163 -41 -7 -7 -521 -135 -546 -135 -14 -1 -39 2 -55 6 l-30 8 39 33 40 33
-27 32 c-15 17 -27 35 -27 39 0 9 201 58 245 60 17 1 105 -15 198 -35z m-770
-44 c4 -17 2 -18 -15 -9 -11 6 -17 17 -14 25 3 9 1 12 -4 9 -6 -3 -10 2 -10
11 0 16 1 16 19 0 10 -10 21 -26 24 -36z m325 -9 l31 -38 -46 -44 -45 -44 6
50 c9 66 18 115 20 115 2 0 17 -17 34 -39z m-62 -8 c-2 -16 -6 -58 -11 -95
l-7 -68 -42 0 c-38 1 -44 5 -73 47 -18 26 -30 49 -28 51 2 2 20 -6 39 -18 35
-21 56 -20 56 2 0 6 12 27 27 47 16 20 29 39 29 44 5 29 12 22 10 -10z m-214
10 c-6 -2 -10 -8 -8 -12 3 -4 -1 -8 -9 -8 -11 0 -12 4 -4 14 6 7 17 13 23 12
7 0 6 -2 -2 -6z m1121 -38 c87 -20 174 -42 194 -49 l36 -12 -99 -26 c-55 -15
-106 -29 -115 -33 -12 -4 -15 0 -15 17 1 19 -4 23 -27 23 -18 0 -35 9 -47 25
-18 24 -18 24 -40 5 l-22 -20 6 30 c5 26 2 32 -21 43 -33 15 -73 16 -73 1 0
-6 -6 -9 -12 -6 -7 2 -29 -10 -49 -28 -20 -18 -42 -35 -50 -37 -12 -5 -11 -11
4 -38 24 -44 14 -53 -89 -79 -81 -21 -82 -21 -125 -2 -33 14 -83 21 -199 28
l-155 8 55 19 c30 10 60 21 65 25 23 13 582 149 600 146 11 -3 91 -21 178 -40z
m-160 -9 c9 -7 17 -19 17 -26 0 -7 -3 -10 -6 -7 -4 4 -20 -1 -35 -10 -23 -14
-31 -15 -41 -5 -11 11 -10 12 3 7 10 -4 20 -1 24 5 5 8 -2 10 -21 8 -25 -3
-29 -7 -27 -30 1 -16 -3 -28 -9 -28 -6 0 -8 -9 -5 -21 6 -21 -21 -88 -35 -89
-4 0 -12 8 -17 19 -8 15 -6 20 14 29 26 12 34 45 13 58 -8 5 -9 2 -5 -10 9
-23 -13 -16 -27 8 -9 14 -6 21 14 34 13 10 31 25 39 34 10 11 23 15 38 12 18
-5 22 -3 17 10 -8 20 23 21 49 2z m19 -63 c17 -15 19 -15 33 3 14 19 14 19 29
-1 19 -24 19 -32 5 -41 -7 -4 -16 0 -20 9 -5 9 -17 13 -29 10 -17 -5 -14 -9
21 -39 23 -19 44 -34 49 -34 4 0 10 -6 13 -14 4 -9 -12 -25 -44 -45 -28 -17
-53 -31 -55 -31 -3 0 -16 8 -28 18 l-24 17 40 48 c62 73 27 55 -43 -23 -34
-38 -66 -67 -71 -64 -14 9 -9 81 7 94 8 7 15 18 15 24 0 25 26 66 42 66 9 0
20 5 23 10 9 14 16 13 37 -7z m128 -29 c0 -8 -5 -12 -10 -9 -6 4 -8 11 -5 16
9 14 15 11 15 -7z m-34 -41 c-3 -3 -13 -2 -23 1 -17 7 -17 8 2 22 18 13 20 13
23 -1 2 -9 1 -19 -2 -22z m-941 -13 c357 -24 413 -30 439 -41 29 -14 33 -24
12 -32 -8 -3 -16 2 -19 14 -4 15 -13 19 -49 17 l-43 -1 41 -4 c37 -4 42 -7 42
-29 0 -25 -2 -25 -62 -20 -33 3 -146 10 -251 16 -332 18 -335 18 -335 44 0 21
3 22 103 20 l102 -2 -92 7 c-50 3 -95 10 -99 14 -10 9 30 9 211 -3z m824 -103
c8 -11 5 -13 -19 -9 -17 2 -30 8 -30 13 0 14 36 11 49 -4z m-814 -77 c-3 -5
-15 -10 -26 -10 -11 0 -17 5 -14 10 3 6 15 10 26 10 11 0 17 -4 14 -10z"/>
<path d="M1197 2628 c-31 -31 -31 -32 -2 -8 16 14 34 28 40 32 5 5 6 8 2 8 -4
0 -22 -15 -40 -32z"/>
<path d="M1235 2620 c-3 -6 1 -7 9 -4 18 7 21 14 7 14 -6 0 -13 -4 -16 -10z"/>
<path d="M620 1987 c80 -81 147 -147 149 -147 8 0 -78 89 -184 190 -91 87 -85
79 35 -43z"/>
<path d="M1981 1355 c0 -5 27 -39 59 -75 33 -35 60 -60 60 -55 0 6 -27 39 -60
75 -32 36 -59 61 -59 55z"/>
<path d="M1492 949 c25 -10 27 -15 30 -72 3 -54 6 -62 23 -63 15 -1 16 0 3 3
-15 4 -18 15 -18 64 l0 59 28 -6 c65 -14 62 -10 62 -86 0 -68 -1 -70 -22 -64
-13 3 -46 11 -75 17 -50 11 -52 14 -56 48 -4 35 -4 35 -3 -3 l1 -40 70 -18
c39 -10 76 -18 83 -18 8 0 12 22 12 79 l0 79 -69 16 c-77 18 -111 20 -69 5z"/>
<path d="M1554 908 c-4 -6 -2 -14 4 -16 7 -2 9 -16 6 -35 -4 -23 -3 -28 4 -17
10 15 15 43 13 68 -1 15 -18 16 -27 0z"/>
<path d="M1834 1060 c0 -52 1 -74 3 -47 2 26 2 68 0 95 -2 26 -3 4 -3 -48z"/>
<path d="M1803 1050 c0 -30 2 -43 4 -27 2 15 2 39 0 55 -2 15 -4 2 -4 -28z"/>
<path d="M2092 971 c-117 -32 -218 -63 -223 -68 -6 -6 -8 -34 -6 -64 l3 -54 2
57 c2 44 6 58 20 62 53 17 432 116 441 116 7 0 11 -25 11 -64 0 -52 -3 -65
-17 -69 -10 -3 -112 -32 -227 -66 -115 -33 -213 -58 -218 -55 -4 3 -8 0 -8 -5
0 -16 0 -16 211 45 107 31 211 61 232 66 l37 10 0 74 c0 70 -1 74 -22 73 -13
0 -119 -27 -236 -58z"/>
<path d="M2273 987 c-27 -8 -33 -15 -33 -38 0 -26 2 -27 31 -19 40 12 41 13
37 42 -3 22 -6 23 -35 15z"/>
<path d="M2155 955 c-39 -12 -53 -31 -42 -60 5 -11 12 -11 44 0 36 12 48 29
41 58 -2 10 -11 11 -43 2z"/>
<path d="M2222 945 c0 -16 2 -22 5 -12 2 9 2 23 0 30 -3 6 -5 -1 -5 -18z"/>
<path d="M2050 879 c0 -43 3 -50 18 -47 13 2 18 15 20 51 3 42 1 47 -17 47
-18 0 -21 -6 -21 -51z"/>
<path d="M2003 865 c0 -33 2 -45 4 -27 2 18 2 45 0 60 -2 15 -4 0 -4 -33z"/>
<path d="M2020 870 c0 -27 5 -50 10 -50 6 0 10 23 10 50 0 28 -4 50 -10 50 -5
0 -10 -22 -10 -50z"/>
<path d="M2256 911 c-13 -5 -16 -10 -8 -15 14 -8 62 3 62 15 0 11 -27 11 -54
0z"/>
<path d="M1970 860 c0 -27 5 -50 10 -50 6 0 10 23 10 50 0 28 -4 50 -10 50 -5
0 -10 -22 -10 -50z"/>
<path d="M1940 850 c0 -27 5 -50 10 -50 6 0 10 23 10 50 0 28 -4 50 -10 50 -5
0 -10 -22 -10 -50z"/>
<path d="M1900 840 c0 -27 5 -50 10 -50 6 0 10 23 10 50 0 28 -4 50 -10 50 -5
0 -10 -22 -10 -50z"/>
<path d="M2145 877 c-44 -17 -44 -38 0 -24 19 5 31 15 28 20 -4 6 0 8 10 4 10
-3 17 -2 17 3 0 13 -17 12 -55 -3z"/>
<path d="M888 663 c7 -3 16 -2 19 1 4 3 -2 6 -13 5 -11 0 -14 -3 -6 -6z"/>
<path d="M1278 603 c7 -3 16 -2 19 1 4 3 -2 6 -13 5 -11 0 -14 -3 -6 -6z"/>
<path d="M678 453 c23 -2 61 -2 85 0 23 2 4 4 -43 4 -47 0 -66 -2 -42 -4z"/>
<path d="M848 443 c23 -2 61 -2 85 0 23 2 4 4 -43 4 -47 0 -66 -2 -42 -4z"/>
<path d="M2987 769 c8 -8 16 -8 30 0 16 9 14 10 -11 11 -22 0 -27 -3 -19 -11z"/>
<path d="M2794 680 c-21 -16 -51 -30 -66 -30 -16 0 -28 -4 -28 -10 0 -5 -8
-10 -18 -10 -10 0 -91 -20 -180 -43 l-163 -44 -44 49 c-23 26 -48 48 -54 48
-6 0 -26 -14 -46 -31 -33 -29 -38 -31 -61 -19 -23 13 -27 11 -54 -21 -16 -19
-29 -37 -30 -41 -1 -18 -83 -50 -248 -98 -41 -12 -72 -24 -69 -26 5 -5 194 46
262 72 23 8 58 35 81 61 l41 45 47 -36 c26 -20 72 -43 102 -52 74 -21 79 -12
7 10 -60 19 -103 43 -103 57 0 4 16 20 36 35 l36 28 68 -70 c37 -38 88 -89
114 -114 25 -24 42 -47 38 -50 -4 -4 -41 -17 -82 -30 -41 -13 -120 -38 -175
-56 -55 -18 -100 -32 -101 -31 -1 1 -25 35 -54 75 -50 70 -54 73 -84 67 -18
-4 -44 -22 -61 -42 l-31 -36 -39 21 c-25 13 -33 21 -22 22 10 0 28 -5 40 -11
18 -10 24 -8 47 19 20 24 36 32 77 38 45 5 58 3 98 -19 25 -14 43 -22 40 -16
-15 23 -87 49 -137 49 -46 0 -56 -3 -78 -29 -23 -28 -28 -29 -67 -22 -52 10
-77 -3 -49 -24 20 -15 20 -15 0 -15 -35 -1 7 -18 133 -54 65 -19 111 -37 103
-39 -8 -3 -40 -13 -70 -22 -30 -10 -59 -21 -65 -26 -14 -13 -6 -11 76 16 41
14 92 25 114 24 22 -1 121 17 220 40 99 23 191 45 205 48 24 5 24 6 -8 15 -32
9 -36 28 -5 28 14 0 14 2 -1 18 -16 18 -12 20 96 51 62 18 120 34 130 37 12 3
19 -5 28 -31 12 -37 16 -39 95 -36 147 6 303 44 416 101 l39 20 -35 35 c-19
19 -43 35 -54 35 -11 0 -27 14 -39 34 -19 32 -23 34 -94 41 -40 3 -100 11
-133 16 -88 13 -98 12 -141 -21z m216 -9 c3 -1 -22 -15 -55 -32 -41 -20 -68
-28 -85 -24 -14 3 -42 11 -63 16 l-39 10 37 27 c36 28 36 28 118 16 45 -6 84
-12 87 -13z m150 -61 c32 -63 38 -68 58 -48 10 9 16 8 29 -5 16 -16 15 -17
-25 -17 -41 0 -43 1 -69 55 -15 30 -30 55 -33 55 -4 0 -26 -34 -49 -75 -24
-41 -47 -75 -52 -75 -6 0 -33 12 -61 26 l-50 26 -59 -59 c-32 -32 -64 -58 -71
-58 -16 0 -44 82 -54 153 l-6 51 48 -14 c27 -7 66 -16 87 -20 l39 -6 -46 -49
c-68 -72 -56 -74 17 -3 70 70 170 123 229 123 36 0 39 -3 68 -60z m-455 -12
c3 -13 6 -40 8 -62 l2 -38 -126 -35 -126 -34 -34 34 c-19 18 -45 41 -58 50
-14 9 -23 18 -20 21 6 5 311 84 331 85 10 1 20 -8 23 -21z m506 -13 c1 -17
-18 -17 -25 0 -4 11 -1 15 10 13 8 -2 15 -7 15 -13z"/>
<path d="M1788 503 c7 -3 16 -2 19 1 4 3 -2 6 -13 5 -11 0 -14 -3 -6 -6z"/>
<path d="M2153 493 c9 -2 25 -2 35 0 9 3 1 5 -18 5 -19 0 -27 -2 -17 -5z"/>
<path d="M2190 439 c52 -4 117 -12 143 -17 35 -7 46 -7 38 1 -13 13 -123 26
-211 25 -59 -1 -56 -2 30 -9z"/>
<path d="M2670 411 c0 -5 9 -7 20 -4 11 3 20 7 20 9 0 2 -9 4 -20 4 -11 0 -20
-4 -20 -9z"/>
<path d="M1605 300 c-3 -6 1 -7 9 -4 18 7 21 14 7 14 -6 0 -13 -4 -16 -10z"/>
<path d="M934 229 c-3 -6 -15 -9 -25 -6 -11 3 -19 2 -19 -3 0 -9 51 -20 62
-13 11 6 10 33 -1 33 -6 0 -13 -5 -17 -11z"/>
</g>
</svg>
